<svg width="100" height="100" viewBox="0 0 100 100" fill="none" xmlns="http://www.w3.org/2000/svg">
<path d="M50 9.36124C40.1061 9.36165 30.5352 12.8825 22.9998 19.2939C15.4644 25.7053 10.4562 34.5888 8.87136 44.3549C7.28649 54.121 9.22838 64.1324 14.3496 72.5977C19.4707 81.063 27.437 87.4299 36.823 90.5591C38.9063 90.9238 39.6876 89.6738 39.6876 88.5799C39.6876 87.5904 39.6354 84.3091 39.6354 80.8196C29.1666 82.7466 26.4583 78.2676 25.625 75.9239C24.7003 73.6444 23.2345 71.6243 21.3541 70.0383C19.8958 69.2571 17.8125 67.33 21.302 67.278C22.6345 67.4226 23.9124 67.8862 25.0276 68.6296C26.1428 69.3731 27.0623 70.3744 27.7083 71.5487C28.2782 72.5724 29.0445 73.4737 29.9633 74.2008C30.8821 74.9278 31.9353 75.4665 33.0626 75.7858C34.1899 76.1051 35.3692 76.1989 36.5328 76.0617C37.6964 75.9245 38.8215 75.559 39.8436 74.9862C40.024 72.868 40.9681 70.8874 42.5 69.4134C33.2291 68.3718 23.5416 64.7779 23.5416 48.8405C23.4831 44.6995 25.0112 40.6929 27.8125 37.6426C26.5386 34.0435 26.6877 30.0938 28.2291 26.6009C28.2291 26.6009 31.7186 25.5072 39.6875 30.8718C46.5053 28.9967 53.7029 28.9967 60.5208 30.8718C68.4895 25.4551 71.9791 26.6009 71.9791 26.6009C73.5208 30.0937 73.6698 34.0436 72.3958 37.6426C75.2056 40.6877 76.735 44.6977 76.6666 48.8405C76.6666 64.83 66.927 68.3718 57.6562 69.4134C58.6506 70.4213 59.4164 71.6313 59.9017 72.9614C60.387 74.2915 60.5804 75.7104 60.4687 77.1218C60.4687 82.6948 60.4166 87.1738 60.4166 88.5801C60.4166 89.6739 61.1979 90.9759 63.2812 90.5593C72.6506 87.4046 80.594 81.0228 85.6934 72.5531C90.7927 64.0834 92.7162 54.0772 91.1203 44.3206C89.5245 34.5639 84.5132 25.6919 76.9811 19.2884C69.449 12.8848 59.8863 9.36638 50 9.36124Z" fill="white"/>
</svg>
