<svg width="100" height="100" viewBox="0 0 100 100" fill="none" xmlns="http://www.w3.org/2000/svg">
<path d="M72.25 22.7502C71.2611 22.7502 70.2944 23.0435 69.4722 23.5929C68.6499 24.1423 68.009 24.9232 67.6306 25.8368C67.2522 26.7504 67.1532 27.7558 67.3461 28.7257C67.539 29.6956 68.0152 30.5865 68.7145 31.2858C69.4137 31.985 70.3047 32.4612 71.2746 32.6541C72.2445 32.8471 73.2498 32.7481 74.1634 32.3696C75.0771 31.9912 75.8579 31.3503 76.4074 30.5281C76.9568 29.7058 77.25 28.7391 77.25 27.7502C77.25 26.4241 76.7232 25.1524 75.7855 24.2147C74.8479 23.277 73.5761 22.7502 72.25 22.7502ZM91.4167 32.8336C91.3356 29.3765 90.6882 25.9561 89.5 22.7086C88.4406 19.9299 86.7916 17.4139 84.6667 15.3336C82.6034 13.1978 80.0815 11.5593 77.2917 10.5419C74.0527 9.31756 70.6285 8.65527 67.1667 8.58356C62.75 8.33356 61.3333 8.33356 50 8.33356C38.6667 8.33356 37.25 8.33356 32.8333 8.58356C29.3715 8.65527 25.9473 9.31756 22.7083 10.5419C19.9237 11.5696 17.4039 13.2067 15.3333 15.3336C13.1976 17.3968 11.5591 19.9187 10.5417 22.7086C9.31735 25.9475 8.65505 29.3717 8.58334 32.8336C8.33334 37.2502 8.33334 38.6669 8.33334 50.0002C8.33334 61.3336 8.33334 62.7502 8.58334 67.1669C8.65505 70.6288 9.31735 74.053 10.5417 77.2919C11.5591 80.0817 13.1976 82.6036 15.3333 84.6669C17.4039 86.7937 19.9237 88.4308 22.7083 89.4585C25.9473 90.6829 29.3715 91.3452 32.8333 91.4169C37.25 91.6669 38.6667 91.6669 50 91.6669C61.3333 91.6669 62.75 91.6669 67.1667 91.4169C70.6285 91.3452 74.0527 90.6829 77.2917 89.4585C80.0815 88.4411 82.6034 86.8026 84.6667 84.6669C86.801 82.5943 88.4514 80.076 89.5 77.2919C90.6882 74.0444 91.3356 70.624 91.4167 67.1669C91.4167 62.7502 91.6667 61.3336 91.6667 50.0002C91.6667 38.6669 91.6667 37.2502 91.4167 32.8336ZM83.9167 66.6669C83.8863 69.3118 83.4073 71.9323 82.5 74.4169C81.8347 76.2302 80.7662 77.8687 79.375 79.2086C78.0235 80.5857 76.3885 81.652 74.5833 82.3336C72.0988 83.2409 69.4782 83.7199 66.8333 83.7502C62.6667 83.9586 61.125 84.0002 50.1667 84.0002C39.2083 84.0002 37.6667 84.0002 33.5 83.7502C30.7537 83.8016 28.0192 83.3788 25.4167 82.5002C23.6908 81.7839 22.1307 80.7202 20.8333 79.3752C19.4504 78.0367 18.3952 76.3969 17.75 74.5835C16.7327 72.0634 16.1685 69.3833 16.0833 66.6669C16.0833 62.5002 15.8333 60.9586 15.8333 50.0002C15.8333 39.0419 15.8333 37.5002 16.0833 33.3336C16.102 30.6296 16.5956 27.95 17.5417 25.4169C18.2752 23.6582 19.4011 22.0905 20.8333 20.8336C22.0992 19.4009 23.6637 18.2631 25.4167 17.5002C27.9565 16.5837 30.6333 16.1047 33.3333 16.0836C37.5 16.0836 39.0417 15.8336 50 15.8336C60.9583 15.8336 62.5 15.8336 66.6667 16.0836C69.3116 16.1139 71.9321 16.5929 74.4167 17.5002C76.3101 18.2029 78.0096 19.3454 79.375 20.8336C80.7404 22.1135 81.8073 23.6783 82.5 25.4169C83.4261 27.9541 83.9054 30.6326 83.9167 33.3336C84.125 37.5002 84.1667 39.0419 84.1667 50.0002C84.1667 60.9586 84.125 62.5002 83.9167 66.6669ZM50 28.6252C45.7742 28.6335 41.6457 29.8941 38.1361 32.2478C34.6265 34.6015 31.8933 37.9427 30.2818 41.8492C28.6704 45.7557 28.253 50.0522 29.0825 54.1958C29.9119 58.3394 31.951 62.1441 34.942 65.1293C37.933 68.1145 41.7417 70.1461 45.8869 70.9675C50.0321 71.7889 54.3278 71.3632 58.2311 69.7441C62.1345 68.1251 65.4703 65.3854 67.8172 61.8712C70.1641 58.357 71.4167 54.226 71.4167 50.0002C71.4222 47.1882 70.8717 44.4027 69.7968 41.8042C68.722 39.2057 67.144 36.8453 65.1536 34.8588C63.1633 32.8723 60.7998 31.2989 58.1992 30.2291C55.5985 29.1593 52.8121 28.6142 50 28.6252ZM50 63.8752C47.2558 63.8752 44.5732 63.0615 42.2915 61.5369C40.0097 60.0123 38.2313 57.8453 37.1812 55.31C36.131 52.7746 35.8562 49.9848 36.3916 47.2933C36.927 44.6019 38.2484 42.1296 40.1889 40.1891C42.1294 38.2487 44.6016 36.9272 47.2931 36.3918C49.9846 35.8565 52.7744 36.1312 55.3097 37.1814C57.8451 38.2316 60.012 40.01 61.5367 42.2917C63.0613 44.5734 63.875 47.256 63.875 50.0002C63.875 51.8223 63.5161 53.6266 62.8188 55.31C62.1216 56.9933 61.0995 58.5229 59.8111 59.8113C58.5227 61.0997 56.9931 62.1218 55.3097 62.819C53.6264 63.5163 51.8221 63.8752 50 63.8752Z" fill="white"/>
</svg>
