<svg width="100" height="100" viewBox="0 0 100 100" fill="none" xmlns="http://www.w3.org/2000/svg">
<path d="M19.9583 43.75H11.625C10.5199 43.75 9.46012 44.189 8.67872 44.9704C7.89731 45.7518 7.45833 46.8116 7.45833 47.9167C7.45833 49.0217 7.89731 50.0815 8.67872 50.8629C9.46012 51.6443 10.5199 52.0833 11.625 52.0833H19.9583C21.0634 52.0833 22.1232 51.6443 22.9046 50.8629C23.686 50.0815 24.125 49.0217 24.125 47.9167C24.125 46.8116 23.686 45.7518 22.9046 44.9704C22.1232 44.189 21.0634 43.75 19.9583 43.75ZM89.875 31.9167V31.6667C88.6812 30.2075 87.1728 29.0372 85.4627 28.2435C83.7526 27.4497 81.8851 27.0531 80 27.0833H46.9583C43.8967 27.0558 40.9314 28.153 38.625 30.1667C36.4708 32.0647 35.0546 34.6613 34.625 37.5L30.9583 58.3333C30.643 60.1325 30.7258 61.9789 31.201 63.7425C31.6761 65.5062 32.5319 67.1444 33.7083 68.5417C34.8786 69.9343 36.3387 71.0547 37.9867 71.8248C39.6347 72.5948 41.431 72.9959 43.25 73H76.3333C79.3052 73.0449 82.1958 72.0294 84.4866 70.1357C86.7774 68.242 88.3185 65.5939 88.8333 62.6667L92.5 41.8333C92.7888 40.0888 92.7041 38.3028 92.2516 36.5933C91.7991 34.8839 90.9891 33.2899 89.875 31.9167ZM78.4583 35.4167L64.2917 46.9167C63.4541 47.5917 62.3878 47.9167 61.3161 47.8235C60.2443 47.7303 59.2502 47.2262 58.5417 46.4167L48.8333 35.4167H78.4583ZM80.4583 61.125C80.2897 62.1033 79.7772 62.9892 79.0134 63.6233C78.2495 64.2573 77.2843 64.5978 76.2917 64.5833H43.25C42.6449 64.5782 42.0482 64.4414 41.5013 64.1824C40.9545 63.9233 40.4706 63.5483 40.0833 63.0833C39.6951 62.6208 39.412 62.0794 39.2538 61.4967C39.0955 60.9139 39.0658 60.3037 39.1667 59.7083L42.5 40.8333L52.2917 51.9167C54.4229 54.339 57.4083 55.8435 60.6233 56.1153C63.8384 56.3871 67.034 55.4052 69.5417 53.375L83.875 41.6667L80.4583 61.125ZM24.125 27.0833H11.625C10.5199 27.0833 9.46012 27.5223 8.67872 28.3037C7.89731 29.0851 7.45833 30.1449 7.45833 31.25C7.45833 32.3551 7.89731 33.4149 8.67872 34.1963C9.46012 34.9777 10.5199 35.4167 11.625 35.4167H24.125C25.2301 35.4167 26.2899 34.9777 27.0713 34.1963C27.8527 33.4149 28.2917 32.3551 28.2917 31.25C28.2917 30.1449 27.8527 29.0851 27.0713 28.3037C26.2899 27.5223 25.2301 27.0833 24.125 27.0833Z" fill="white"/>
</svg>
