<svg width="39" height="29" viewBox="0 0 39 29" fill="none" xmlns="http://www.w3.org/2000/svg">
<path d="M30.3 28.1C27.0333 28.1 24.6667 26.9333 23.2 24.6C22.5333 23.6 22 22.3667 21.6 20.9C21.2 19.4333 21 17.9 21 16.3C21 12.8333 21.8667 9.7 23.6 6.9C25.4 4.1 28.0333 1.9 31.5 0.299994L32.4 2.09999C30.4667 2.9 28.7667 4.13333 27.3 5.79999C25.9 7.46666 25.0667 9.16666 24.8 10.9C24.6 11.7 24.5 12.4667 24.5 13.2C24.5 13.8667 24.6 14.5 24.8 15.1C26.2667 13.5 28.2 12.7 30.6 12.7C32.9333 12.7 34.8333 13.4 36.3 14.8C37.7667 16.1333 38.5 18 38.5 20.4C38.5 22.6667 37.7333 24.5333 36.2 26C34.6667 27.4 32.7 28.1 30.3 28.1ZM9.7 28.1C6.43333 28.1 4.06667 26.9333 2.6 24.6C1.93333 23.6 1.4 22.3667 1 20.9C0.6 19.4333 0.4 17.9 0.4 16.3C0.4 12.8333 1.26667 9.7 3 6.9C4.8 4.1 7.43333 1.9 10.9 0.299994L11.8 2.09999C9.86667 2.9 8.16667 4.13333 6.7 5.79999C5.3 7.46666 4.46667 9.16666 4.2 10.9C4 11.7 3.9 12.4667 3.9 13.2C3.9 13.8667 4 14.5 4.2 15.1C5.66667 13.5 7.6 12.7 10 12.7C12.3333 12.7 14.2333 13.4 15.7 14.8C17.1667 16.1333 17.9 18 17.9 20.4C17.9 22.6667 17.1333 24.5333 15.6 26C14.0667 27.4 12.1 28.1 9.7 28.1Z" fill="white"/>
</svg>
